<svg version="1.1" id="Layer_1" xmlns="http://www.w3.org/2000/svg" xmlns:xlink="http://www.w3.org/1999/xlink" x="0px" y="0px"
	 width="64px" height="64px" viewBox="0 0 64 64" enable-background="new 0 0 64 64" xml:space="preserve">
<path d="M42.119,35.035c0-0.295-0.095-0.536-0.285-0.727c-0.189-0.189-0.432-0.285-0.727-0.285h-7.084V22.893
	c0-0.274-0.1-0.511-0.301-0.712c-0.199-0.2-0.437-0.3-0.711-0.3H26.94c-0.274,0-0.511,0.1-0.712,0.3c-0.2,0.201-0.3,0.438-0.3,0.712
	v11.131h-7.083c-0.274,0-0.511,0.101-0.711,0.301c-0.201,0.2-0.301,0.438-0.301,0.711c0,0.296,0.095,0.537,0.285,0.728
	l11.131,11.132c0.19,0.189,0.432,0.284,0.728,0.284c0.295,0,0.538-0.095,0.727-0.284l11.1-11.101
	C42.014,35.542,42.119,35.289,42.119,35.035z M62.357,42.119c0,3.353-1.187,6.215-3.558,8.585c-2.371,2.372-5.233,3.559-8.586,3.559
	H15.809c-3.9,0-7.236-1.386-10.009-4.158s-4.158-6.109-4.158-10.009c0-2.741,0.738-5.271,2.213-7.59
	c1.475-2.319,3.458-4.059,5.945-5.218c-0.042-0.633-0.063-1.085-0.063-1.359c0-4.47,1.582-8.286,4.744-11.447
	c3.162-3.163,6.978-4.744,11.447-4.744c3.289,0,6.298,0.917,9.029,2.752c2.729,1.834,4.717,4.269,5.96,7.305
	c1.497-1.308,3.247-1.961,5.249-1.961c2.235,0,4.144,0.79,5.725,2.371c1.581,1.582,2.371,3.489,2.371,5.725
	c0,1.602-0.432,3.057-1.296,4.363c2.74,0.653,4.99,2.082,6.751,4.284C61.478,36.78,62.357,39.294,62.357,42.119L62.357,42.119z"/>
</svg>
